<svg
    xmlns="http://www.w3.org/2000/svg"
    viewBox="0 0 90 90"
    id="vector">
    <path
        id="path"
        d="M 0 5 L 33 17 L 78 90 L 0 90 L 0 5 Z"
        fill="#42a5f5"
        fill-opacity="0.5"/>
    <path
        id="path_1"
        d="M 79 90 L 77 90 L 35.1 20.7 C 34.6 20.9 34.1 21 33.5 21 C 31 21 29 19 29 16.5 C 29 16.2 29 16 29.1 15.7 L 0 6 L 0 4 L 29.8 13.9 C 30.6 12.8 31.9 12 33.5 12 C 36 12 38 14 38 16.5 C 38 17.7 37.5 18.8 36.7 19.6 L 79 90 Z"
        fill="#42a5f5"/>
    <path
        id="path_2"
        d="M 89 90 L 86 90 L 35.4 54.3 C 34.7 54.7 33.9 55 33 55 C 32.2 55 31.5 54.8 30.9 54.4 L 0 90 L 0 88 L 29.4 53.1 C 28.9 52.4 28.5 51.5 28.5 50.5 C 28.5 48 30.5 46 33 46 C 35.5 46 37.5 48 37.5 50.5 C 37.5 51.4 37.2 52.2 36.8 52.9 L 89 90 Z"
        fill="#ff5252"/>
    <path
        id="path_3"
        d="M 32.5 50 L 0 90 L 87.5 90 L 32.5 50 Z"
        fill="#ff5252"
        fill-opacity="0.5"/>
</svg>
