<svg
    xmlns="http://www.w3.org/2000/svg"
    viewBox="0 0 90 90"
    id="vector">
    <path
        id="path"
        d="M 11 44 L 8 44 L 8 35 L 6 35 L 6 44 L 3 44 C 2.4 44 2 44.4 2 45 L 2 63 C 2 63.6 2.4 64 3 64 L 6 64 L 6 78 L 8 78 L 8 64 L 11 64 C 11.6 64 12 63.6 12 63 L 12 45 C 12 44.4 11.6 44 11 44 Z M 10 62 L 4 62 L 4 46 L 10 46 L 10 62 Z"
        fill="#ff5252"/>
    <path
        id="path_1"
        d="M 40 57 L 37 57 L 37 38 L 35 38 L 35 57 L 32 57 C 31.4 57 31 57.4 31 58 L 31 83 C 31 83.6 31.4 84 32 84 L 35 84 L 35 88 L 37 88 L 37 84 L 40 84 C 40.6 84 41 83.6 41 83 L 41 58 C 41 57.4 40.6 57 40 57 Z M 39 82 L 33 82 L 33 59 L 39 59 L 39 82 Z"
        fill="#ff5252"/>
    <path
        id="path_2"
        d="M 27 39 L 24 39 L 24 30 L 22 30 L 22 39 L 19 39 C 18.4 39 18 39.4 18 40 L 18 48 C 18 48.6 18.4 49 19 49 L 22 49 L 22 63 L 24 63 L 24 49 L 27 49 C 27.6 49 28 48.6 28 48 L 28 40 C 28 39.4 27.6 39 27 39 Z M 26 47 L 20 47 L 20 41 L 26 41 L 26 47 Z"
        fill="#4caf50"/>
    <path
        id="path_3"
        d="M 55 14 L 52 14 L 52 5 L 50 5 L 50 14 L 47 14 C 46.4 14 46 14.4 46 15 L 46 33 C 46 33.6 46.4 34 47 34 L 50 34 L 50 48 L 52 48 L 52 34 L 55 34 C 55.6 34 56 33.6 56 33 L 56 15 C 56 14.4 55.6 14 55 14 Z M 54 32 L 48 32 L 48 16 L 54 16 L 54 32 Z"
        fill="#4caf50"/>
    <path
        id="path_4"
        d="M 71 30 L 68 30 L 68 21 L 66 21 L 66 30 L 63 30 C 62.4 30 62 30.4 62 31 L 62 69 C 62 69.6 62.4 70 63 70 L 66 70 L 66 74 L 68 74 L 68 70 L 71 70 C 71.6 70 72 69.6 72 69 L 72 31 C 72 30.4 71.6 30 71 30 Z M 70 68 L 64 68 L 64 32 L 70 32 L 70 68 Z"
        fill="#4caf50"/>
    <path
        id="path_5"
        d="M 88 33 L 85 33 L 85 8 L 83 8 L 83 33 L 80 33 C 79.4 33 79 33.4 79 34 L 79 49 C 79 49.6 79.4 50 80 50 L 83 50 L 83 58 L 85 58 L 85 50 L 88 50 C 88.6 50 89 49.6 89 49 L 89 34 C 89 33.4 88.6 33 88 33 Z M 87 48 L 81 48 L 81 35 L 87 35 L 87 48 Z"
        fill="#ff5252"/>
    <path
        id="path_6"
        d="M 4 46 L 10 46 L 10 62 L 4 62 Z"
        fill="#ff5252"
        fill-opacity="0.5"/>
    <path
        id="path_7"
        d="M 33 59 L 39 59 L 39 82 L 33 82 Z"
        fill="#ff5252"
        fill-opacity="0.5"/>
    <path
        id="path_8"
        d="M 81 35 L 87 35 L 87 48 L 81 48 Z"
        fill="#ff5252"
        fill-opacity="0.5"/>
    <path
        id="path_9"
        d="M 20 41 L 26 41 L 26 47 L 20 47 Z"
        fill="#4caf50"
        fill-opacity="0.5"/>
    <path
        id="path_10"
        d="M 48 16 L 54 16 L 54 32 L 48 32 Z"
        fill="#4caf50"
        fill-opacity="0.5"/>
    <path
        id="path_11"
        d="M 64 32 L 70 32 L 70 68 L 64 68 Z"
        fill="#4caf50"
        fill-opacity="0.5"/>
</svg>
