<svg
    xmlns="http://www.w3.org/2000/svg"
    viewBox="0 0 90 90"
    id="vector">
    <path
        id="path"
        d="M 3.5 61.4 L 5.4 66 L 6.4 44.5 L 8.5 51.6 L 11.1 39.5 L 11.1 39.5 L 14.1 66.4 L 19.6 15.4 L 24.4 27.9 L 26.2 13.4 L 28 2.5 L 36.8 25.1 L 40.3 7.7 L 42.1 20.6 L 44 7.7 L 44.8 12.1 L 47 1 L 47 1 L 49.7 29.3 L 52.3 15.1 L 54.4 31.8 L 58.6 12.8 L 59.9 29.2 L 65.9 18.2 L 69.1 59.3 L 70.7 61.9 L 74.4 44.6 L 76.9 64.5 L 79.1 62.2 L 79.1 79.9 L 82.4 74.2 L 89 90 L 86 90 L 81.9 79.1 L 77.1 87.4 L 77.1 67 L 75.4 68.8 L 73.9 56.6 L 71.6 67.3 L 67.1 59.9 L 64.4 25.1 L 58.4 36.1 L 57.6 26.4 L 53.8 43.5 L 51.9 28.1 L 48.6 37 L 46 15 L 45.4 25.1 L 44.3 19.5 L 42.1 34.7 L 40 19.5 L 37.4 32.1 L 34.2 24 L 28.3 8.8 L 25.9 37.4 L 20.7 23.8 L 14.1 84.8 L 10.5 51.7 L 9.8 63.6 L 7.8 56.7 L 6.9 75.2 L 4.7 69.8 L 3 90 L 0 90 Z"
        fill="#42a5f5"/>
    <path
        id="path_1"
        d="M 69.7 70.7 L 69.1 64.5 L 66 73 L 66 73 L 65.5 61.4 L 63.4 63.9 L 60.3 81.1 L 59.1 71 L 55.9 80.4 L 55.2 71.9 L 53.2 82.8 L 50.5 47.5 L 47.4 48.8 L 45.9 42.3 L 42 67 L 42 67 L 40.8 51.4 L 37.8 61.5 L 36.6 34.3 L 33.6 36.3 L 32.7 14.1 L 29.8 25 L 14 0 L 17 0 L 29 20.1 L 34.3 0.9 L 35.4 32.7 L 38.4 30.7 L 39.2 49.5 L 42.2 39.6 L 42.9 52.9 L 45.1 30.7 L 48.9 46.4 L 52.8 44.8 L 53.8 68.2 L 55.8 57.1 L 57.1 70.6 L 59.9 62 L 60.7 67.9 L 61.6 63.1 L 67.5 55.6 L 67.5 62.4 L 69.9 50.5 L 71.3 66.3 L 73 64.6 L 74.1 76.4 L 90 48 L 90 52 L 72.9 83 L 71.2 69.4 Z"
        fill="#ff5252"/>
</svg>
