<svg
    xmlns="http://www.w3.org/2000/svg"
    viewBox="0 0 90 90"
    id="vector">
    <path
        id="path"
        d="M 76 20 L 76 18 L 90 17 L 90 19 L 76 20 Z M 50 24.5 C 50 24.5 50 24.5 50 24.5 C 50 27 48 29 45.5 29 C 43.7 29 42.2 27.9 41.4 26.4 L 19 32 C 19 32.2 19 32.3 19 32.5 C 19 35 17 37 14.5 37 C 12.8 37 11.4 36.1 10.6 34.7 L 0 38 L 0 36 L 10 32.8 C 10 32.7 10 32.6 10 32.5 C 10 30 12 28 14.5 28 C 16.1 28 17.5 28.9 18.3 30.1 L 41 24.5 C 41 22 43 20 45.5 20 C 47.3 20 48.8 21 49.5 22.5 L 75.8 18 L 76 19 L 76.2 20 L 50 24.5 Z"
        fill="#42a5f5"/>
    <path
        id="path_1"
        d="M 90 9 L 80.7 17 C 80.9 17.5 81 18 81 18.5 C 81 21 79 23 76.5 23 C 75.2 23 74 22.4 73.2 21.5 L 49.7 39.9 C 49.9 40.4 50 40.9 50 41.5 C 50 44 48 46 45.5 46 C 44.1 46 42.9 45.4 42.1 44.4 L 17.9 61.8 C 17.9 62 18 62.2 18 62.5 C 18 65 16 67 13.5 67 C 12.4 67 11.4 66.6 10.6 65.9 L 0 72 L 0 70 L 9.4 64.4 C 9.2 63.8 9 63.2 9 62.5 C 9 60 11 58 13.5 58 C 15 58 16.4 58.8 17.2 59.9 L 41.2 42.5 C 41.1 42.2 41.1 41.8 41.1 41.4 C 41.1 38.9 43.1 36.9 45.6 36.9 C 46.8 36.9 47.9 37.4 48.7 38.2 L 72.3 19.7 C 72.2 19.3 72.1 18.9 72.1 18.5 C 72.1 16 74.1 14 76.6 14 C 77.9 14 79 14.5 79.8 15.3 L 90 7 L 90 9 Z"
        fill="#ff5252"/>
    <path
        id="path_2"
        d="M 90 25.9 L 79.7 37.3 C 80.5 38.1 81 39.2 81 40.4 C 81 42.9 79 44.9 76.5 44.9 C 75.6 44.9 74.8 44.6 74.2 44.2 L 49.6 69.6 C 49.8 70.2 50 70.8 50 71.4 C 50 73.9 48 75.9 45.5 75.9 C 44.6 75.9 43.8 75.6 43.1 75.2 L 23 89.9 L 20 89.9 L 41.7 73.8 C 41.3 73.1 41 72.3 41 71.4 C 41 68.9 43 66.9 45.5 66.9 C 46.6 66.9 47.6 67.3 48.4 68 L 72.7 42.9 C 72.2 42.2 72 41.4 72 40.5 C 72 38 74 36 76.5 36 C 77 36 77.6 36.1 78.1 36.3 L 90 22.9 L 90 25.9 Z"
        fill="#4caf50"/>
</svg>
