<svg
    xmlns="http://www.w3.org/2000/svg"
    viewBox="0 0 90 90"
    id="vector">
    <path
        id="path"
        d="M 42.1 25.4 C 31.9 27.3 24.1 36.2 24.1 47 C 24.1 59.2 33.9 69 46.1 69 C 56.9 69 65.8 61.2 67.7 51 L 82.9 51 C 80.9 69.6 65.2 84 46.1 84 C 25.7 84 9.1 67.4 9.1 47 C 9.1 27.9 23.5 12.2 42.1 10.2 L 42.1 25.4 Z"
        fill="#42a5f5"/>
    <path
        id="path_1"
        d="M 46 10.5 L 46 25.5 C 51.9 25.5 57.2 27.8 61.1 31.5 L 71.8 21 C 65.1 14.5 56 10.5 46 10.5 Z"
        fill="#ffa431"/>
    <path
        id="path_2"
        d="M 74.5 23.9 C 79.8 30.3 83 38.5 83 47.5 L 68 47.5 C 68 42.7 66.4 38.2 63.8 34.6 L 74.5 23.9 Z"
        fill="#ff5252"/>
</svg>
