<svg
    xmlns="http://www.w3.org/2000/svg"
    viewBox="0 0 90 90"
    id="vector">
    <path
        id="path"
        d="M 24 79 C 24 79.795 23.684 80.559 23.121 81.121 C 22.559 81.684 21.795 82 21 82 C 20.205 82 19.441 81.684 18.879 81.121 C 18.316 80.559 18 79.795 18 79 C 18 78.205 18.316 77.441 18.879 76.879 C 19.441 76.316 20.205 76 21 76 C 21.795 76 22.559 76.316 23.121 76.879 C 23.684 77.441 24 78.205 24 79 Z"
        fill="#ff5252"/>
    <path
        id="path_1"
        d="M 54 67 C 54 67.795 53.684 68.559 53.121 69.121 C 52.559 69.684 51.795 70 51 70 C 50.205 70 49.441 69.684 48.879 69.121 C 48.316 68.559 48 67.795 48 67 C 48 66.205 48.316 65.441 48.879 64.879 C 49.441 64.316 50.205 64 51 64 C 51.795 64 52.559 64.316 53.121 64.879 C 53.684 65.441 54 66.205 54 67 Z"
        fill="#ff5252"/>
    <path
        id="path_2"
        d="M 71 39 C 71 39.795 70.684 40.559 70.121 41.121 C 69.559 41.684 68.795 42 68 42 C 67.205 42 66.441 41.684 65.879 41.121 C 65.316 40.559 65 39.795 65 39 C 65 38.205 65.316 37.441 65.879 36.879 C 66.441 36.316 67.205 36 68 36 C 68.795 36 69.559 36.316 70.121 36.879 C 70.684 37.441 71 38.205 71 39 Z"
        fill="#ff5252"/>
    <path
        id="path_3"
        d="M 20 53 C 20 53.795 19.684 54.559 19.121 55.121 C 18.559 55.684 17.795 56 17 56 C 16.205 56 15.441 55.684 14.879 55.121 C 14.316 54.559 14 53.795 14 53 C 14 52.205 14.316 51.441 14.879 50.879 C 15.441 50.316 16.205 50 17 50 C 17.795 50 18.559 50.316 19.121 50.879 C 19.684 51.441 20 52.205 20 53 Z"
        fill="#42a5f5"/>
    <path
        id="path_4"
        d="M 50 41 C 50 41.527 49.861 42.044 49.598 42.5 C 49.335 42.956 48.956 43.335 48.5 43.598 C 48.044 43.861 47.527 44 47 44 C 46.205 44 45.441 43.684 44.879 43.121 C 44.316 42.559 44 41.795 44 41 C 44 40.205 44.316 39.441 44.879 38.879 C 45.441 38.316 46.205 38 47 38 C 47.527 38 48.044 38.139 48.5 38.402 C 48.956 38.665 49.335 39.044 49.598 39.5 C 49.861 39.956 50 40.473 50 41 Z"
        fill="#42a5f5"/>
    <path
        id="path_5"
        d="M 67 13 C 67 13.795 66.684 14.559 66.121 15.121 C 65.559 15.684 64.795 16 64 16 C 63.205 16 62.441 15.684 61.879 15.121 C 61.316 14.559 61 13.795 61 13 C 61 12.205 61.316 11.441 61.879 10.879 C 62.441 10.316 63.205 10 64 10 C 64.795 10 65.559 10.316 66.121 10.879 C 66.684 11.441 67 12.205 67 13 Z"
        fill="#42a5f5"/>
</svg>
