<svg
    xmlns="http://www.w3.org/2000/svg"
    viewBox="0 0 90 90"
    id="vector">
    <path
        id="path"
        d="M 46.2 28.8 L 43.9 16.5 L 40.5 34.8 L 38.3 29.4 L 35.9 40.2 L 33 23 L 29.9 40.4 L 26.8 48.2 L 25.6 43.7 L 22 50.9 L 20 16.8 L 14 30.6 L 11.8 25.1 L 7.1 31.6 L 0 24 L 0 21 L 6.9 28.4 L 12.2 20.9 L 14 25.4 L 22 7.2 L 24 43.1 L 26.4 38.3 L 27.2 41.8 L 28 39.7 L 33 11 L 36.1 29.8 L 37.7 22.6 L 39.5 27.2 L 44.1 1.5 L 47.8 25.2 L 51.9 22.1 L 53 38.9 L 53.9 34.2 L 56.9 38 L 56.5 22.4 L 61.7 3.9 L 63.7 42.3 L 70.4 25.2 L 72.3 37.5 L 74.7 29.5 L 77.4 34.1 L 79 15 L 82 22 L 83 12 L 83 12 L 85 18 L 85 18 L 90 6 L 90 6 L 90 6 L 90 11 L 86 23 L 84 20 L 83 29 L 80.8 24.7 L 78.6 39.9 L 75.3 34.5 L 71.7 46.5 L 69.6 32.8 L 62.3 51.7 L 60.3 16.1 L 58.5 22.6 L 59.1 44 L 55.1 38.8 L 52 49.1 L 50.1 25.9 Z"
        fill="#ff5252"/>
    <path
        id="path_1"
        d="M 51.3 65 L 47.2 55 L 44.7 63 L 36 63 L 25.5 64.1 L 23.9 61.7 L 18.6 68 L 14.3 55.9 L 12.6 65.4 L 5.4 55.9 L -0.2 55 L 0.2 53 L 6.6 54.1 L 11.4 60.6 L 13.7 48.1 L 19.4 64 L 24.1 58.3 L 26.5 61.9 L 35.9 61 L 43.3 61 L 46.8 49 L 52.7 63 L 58.5 63 L 61 66.1 L 61 58.6 L 65 62.6 L 74.8 52.8 L 75.9 63.6 L 83.6 60.7 L 90 66 L 90 69 L 82.4 63.3 L 74.1 66.4 L 73.2 57.2 L 65 65.4 L 63 63.4 L 63 71.9 L 57.5 65 Z"
        fill="#4caf50"/>
    <path
        id="path_2"
        d="M 0 80 L 0 78 L 18.6 78 L 21.4 82.9 L 23.7 69.7 L 27.8 82 L 59.7 82 L 73.9 71.9 L 90 79 L 90 82 L 74.1 74.1 L 60.3 84 L 26.2 84 L 24.3 76.3 L 22.6 89.1 L 17.4 80 Z"
        fill="#42a5f5"/>
</svg>
