<svg
    xmlns="http://www.w3.org/2000/svg"
    viewBox="0 0 90 90"
    id="vector">
    <path
        id="path"
        d="M 34 82 L 46 48 L 46 48 L 46 48 L 83 48 C 82.4 68.1 66.1 84 46 84 C 41.8 84 37.8 83.3 34 82 L 34 82 Z"
        fill="#42a5f5"/>
    <path
        id="path_1"
        d="M 46 48 L 74 22 C 79.5 28.5 83 37.4 83 46.7 C 83 47.1 83 47.7 83 48 L 46 48 Z"
        fill="#bdbdbd"/>
    <path
        id="path_2"
        d="M 46 48 L 34 82 C 24.7 78.9 17.4 71.7 13 63 L 46 48 Z"
        fill="#ff5252"/>
    <path
        id="path_3"
        d="M 46 48 L 13 63 C 10.5 58 9 52.6 9 46.6 C 9 35.3 14.1 24.7 22 17.9 L 46 48 Z"
        fill="#4caf50"/>
    <path
        id="path_4"
        d="M 46.3 43.2 L 23 15.1 C 29.3 10 37.3 7 46 7 C 56.6 7 66.3 11.8 73 19 L 46.3 43.2 Z"
        fill="#ffa431"/>
</svg>
